# xmcd
#
# Track frame offsets:
# 150
# 16335
# 29175
# 50292
# 53241
# 68919
# 87364
# 88297
# 107575
# 127459
# 147955
# 149592
# 170294
# 187858
# 194899
# 195753
# 214338
# 217657
# 230403
# 248605
#
# Disc length: 3567 seconds
#
#
# Revision: 0
# Processed by: cddbd v1.5.1PL2 Copyright (c) Steve Scherf et al.
# Submitted via: FreeRIP 2.944 
#
DISCID=2c0ded14
DTITLE=Old School Vendetta - Waste Management
DYEAR=2005
DGENRE=Hip-Hop
TTITLE0=Power Moves
TTITLE1=All About Timing
TTITLE2=Waste Management
TTITLE3=Take A Pull
TTITLE4=Problems
TTITLE5=1 TrackMind
TTITLE6=Peace
TTITLE7=Good Things
TTITLE8=Where To Begin
TTITLE9=What Does It Mean?
TTITLE10=Working With Tapes
TTITLE11=No Need
TTITLE12=Anal yze This
TTITLE13=Old School
TTITLE14=Ur Boy, B! f. JJ
TTITLE15=Catch My Drift
TTITLE16=Get Some...
TTITLE17=S*f*f*
TTITLE18=Hard 2 Believe
TTITLE19=[untitled]
EXTD=
EXTT0=
EXTT1=
EXTT2=
EXTT3=
EXTT4=
EXTT5=
EXTT6=
EXTT7=
EXTT8=
EXTT9=
EXTT10=
EXTT11=
EXTT12=
EXTT13=
EXTT14=
EXTT15=
EXTT16=
EXTT17=
EXTT18=
EXTT19=
PLAYORDER=
